<svg enable-background="new 0 0 369.4 470.4" viewBox="0 0 369.4 470.4" xmlns="http://www.w3.org/2000/svg" xmlns:xlink="http://www.w3.org/1999/xlink"><linearGradient id="a" gradientTransform="matrix(1 0 -.2222 1 -251.9965 0)" gradientUnits="userSpaceOnUse" x1="304.6274" x2="668.2039" y1="410.3816" y2="46.805"><stop offset=".05506037" stop-color="#c5c7ff"/><stop offset=".2006" stop-color="#d0e8d9"/><stop offset=".424" stop-color="#fffcad"/><stop offset=".5935" stop-color="#ffd9b6"/><stop offset=".7809" stop-color="#ffd7ff"/><stop offset="1" stop-color="#caaaff"/></linearGradient><path d="m49.5 317 50.7-317h116.1l-93.1 317zm34.4 16h-.9l-28.6 52h-54.2l-.2.9 36.7 31.8-28.9 52.4.5.3 51.7-32.3 37.4 32.3.7-.3-5.6-52.3 50.8-31.8.2-.9h-54zm192.4-16 93.1-317h-116.1l-50.7 317zm20.5 68h-54.2l-5.5-52h-.9l-28.6 52h-54.2l-.2.9 36.7 31.8-28.9 52.4.5.3 51.7-32.3 37.4 32.3.7-.3-5.6-52.3 50.8-31.8z" fill="url(#a)"/></svg>