<svg enable-background="new 0 0 718 51.4" viewBox="0 0 718 51.4" xmlns="http://www.w3.org/2000/svg"><path d="m0 49.8 11.3-49h38.7l-2.8 12h-23.7c-1.2 5.2-1.5 6.2-1.9 8h20.2l-2.5 11h-20l-1.6 7h24.3l-2.5 11z"/><path d="m86.4 49.8-19.3-23.7c-.8 3.3-1.4 5.7-5.5 23.7h-14.5l11.3-49h9.3l18.4 22.4 5.2-22.4h14.2l-11.3 49z"/><path d="m122.6 51.4c-8.1 0-13.4-2.1-21.1-7.5l7.6-12c6 4.6 11.3 6.4 15.8 6.4 4.2 0 9.9-1.1 9.9-3.9 0-5.3-27 1.4-27-14.4 0-1.1.1-2.3.4-3.6 3.1-13.7 17.9-16.4 26.1-16.4 7.2 0 13.5 2.3 20.4 7.3l-6.5 10.7c-5.8-3.9-12-4.9-16.9-4.9-7.1 0-8.8 2-8.8 2.9 0 4.4 27-2.2 27 14.3 0 1.3-.1 2.7-.5 4.2-3.1 13.6-15.9 16.9-26.4 16.9z"/><path d="m152 49.8 11.3-49h38.7l-2.8 12h-23.8c-1.2 5.2-1.5 6.2-1.9 8h20.2l-2.5 11h-20l-1.6 7h24.4l-2.5 11z"/><path d="m246.8 49.8 2.5-20c-6 6.5-12.1 13.1-17.9 21h-6l-6.9-20.1c-2.2 6.5-6.5 19.1-6.5 19.1h-13.6l14.9-49h12.2l9.1 27.2c8.2-9.3 15.6-17.9 23.9-27.2l9.2.1-7.4 48.9z"/><path d="m291.2 49.8h-25.7l11.3-49h24.9c9 0 13.1 4.5 13.1 10.8 0 6.1-3.6 10.7-8 13.1 2.2 1.6 3.8 5.1 3.8 8.5 0 .7-.1 1.4-.2 2.1-2.1 9.1-10.3 14.5-19.2 14.5zm6-16.3c0-1.4-.6-2.7-3.2-2.7h-10.8l-1.8 8h10.2c3.7 0 5-2.2 5.3-3.8.1-.5.3-1 .3-1.5zm4.4-18.1c0-1.4-.6-2.6-3.2-2.6h-11l-1.9 8h10.4c3.5 0 5.1-2.2 5.5-4 .1-.4.2-.9.2-1.4z"/><path d="m313.8 49.8 11.2-49h14.8l-8.1 35h25.9l-3.2 14z"/><path d="m359.6 49.8 11.3-49h38.7l-2.8 12h-23.8c-1.2 5.2-1.5 6.2-1.9 8h20.2l-2.5 11h-20l-1.6 7h24.5l-2.5 11z"/><path d="m451.3 51.4c-8.1 0-13.4-2.1-21.1-7.5l7.6-12c6 4.6 11.3 6.4 15.8 6.4 4.2 0 9.9-1.1 9.9-3.9 0-5.3-27 1.4-27-14.4 0-1.1.1-2.3.4-3.6 3.1-13.7 17.9-16.4 26.1-16.4 7.2 0 13.5 2.3 20.4 7.3l-6.5 10.7c-5.8-3.9-12-4.9-16.9-4.9-7.1 0-8.8 2-8.8 2.9 0 4.4 27-2.2 27 14.3 0 1.3-.1 2.7-.5 4.2-3 13.6-15.9 16.9-26.4 16.9z"/><path d="m517.9 13.8-8.4 36h-14.9l8.3-36h-15.8l3-13h46.6l-3 13z"/><path d="m560.7 49.8-1.1-6h-19.4l-4.3 6h-14.3l33.6-49h12.2l10 49zm-5.2-29.8-7.6 11.8h9.7z"/><path d="m611 49.8-10.7-17h-1.2l-3.9 17h-14.8l11.2-49h25.9c9.4 0 14.1 4.3 14.1 11.2 0 9.1-7 16.2-15.6 19l11.1 16.7-1.3 2.1zm5.3-33.8c0-1.5-.9-3.2-3.9-3.2h-8.7l-1.9 8h8.4c3.4 0 5.7-2.2 6-3.9.1-.3.1-.6.1-.9z"/><path d="m647.8 51.4c-8.1 0-13.4-2.1-21.1-7.5l7.6-12c6 4.6 11.3 6.4 15.8 6.4 4.2 0 9.9-1.1 9.9-3.9 0-5.3-27 1.4-27-14.4 0-1.1.1-2.3.4-3.6 3.1-13.7 17.9-16.4 26.1-16.4 7.2 0 13.5 2.3 20.4 7.3l-6.5 10.7c-5.8-3.9-12-4.9-16.9-4.9-7.1 0-8.8 2-8.8 2.9 0 4.4 27-2.2 27 14.3 0 1.3-.1 2.7-.5 4.2-3.1 13.6-15.9 16.9-26.4 16.9z"/><path d="m682.1 51c-3.1 0-5.2-2.2-5.2-5.3 0-4.4 4.3-8.4 8.3-8.4 3 0 5.1 2.2 5.1 5.2 0 .6-.1 1.1-.2 1.7-.8 3.8-4.5 6.8-8 6.8zm9.4-18.2h-10.4l5.7-32h13.8z"/><path d="m699.4 51c-3.1 0-5.2-2.2-5.2-5.3 0-4.4 4.3-8.4 8.3-8.4 3 0 5.1 2.2 5.1 5.2 0 .6-.1 1.1-.2 1.7-.8 3.8-4.5 6.8-8 6.8zm9.4-18.2h-10.4l5.7-32h13.9z"/></svg>